<svg id="SvgjsSvg1001" width="288" height="288" xmlns="http://www.w3.org/2000/svg" version="1.1" xmlns:xlink="http://www.w3.org/1999/xlink" xmlns:svgjs="http://svgjs.com/svgjs"><defs id="SvgjsDefs1002"></defs><g id="SvgjsG1008" transform="matrix(1,0,0,1,0,0)"><svg xmlns="http://www.w3.org/2000/svg" enable-background="new 0 0 1000 1000" viewBox="0 0 1000 1000" width="288" height="288"><g transform="matrix(.1 0 0 -.1 0 512)" fill="#ffffff" class="color000 svgShape"><path d="M2115.9 4974.8l-53.6-45.9-5.7-342.7c-7.7-423.1 26.8-1340 63.2-1709.5 38.3-375.2 114.9-817.4 181.9-1058.6 128.3-453.7 314-752.3 821.3-1315.2 626-691.1 815.5-1087.3 884.4-1847.3 24.9-283.3 13.4-459.5-42.1-673.9-40.2-155.1-157-425-225.9-520.7-116.8-162.7 49.8-352.2 214.4-245 70.8 46 269.9 463.3 333.1 693 45.9 174.2 51.7 222.1 49.8 516.9 0 660.4-145.5 1188.8-461.4 1667.4-122.5 187.6-243.1 335-501.6 620.3-593.5 652.8-742.8 943.8-859.5 1684.6-80.4 499.6-134 1326.6-135.9 2111.5v185.7h2613.1c2329.8 0 2615-3.8 2624.6-28.7 21.1-49.8-28.7-1458.7-59.3-1751.6-61.3-572.4-149.3-1005-262.3-1267.3-118.7-283.3-279.5-505.4-666.2-934.2-513-568.6-702.6-874.9-850-1382.2-76.6-268-114.9-562.8-114.9-915.1 0-281.4 5.7-336.9 51.7-507.3 61.3-227.8 262.3-647.1 333.1-693 103.4-67 254.6-3.8 254.6 107.2 0 26.8-51.7 153.1-114.9 279.5-164.6 329.3-201 486.3-199.1 832.8 5.8 482.4 84.2 850 266.1 1219.5 124.4 252.7 302.5 495.8 622.2 848.1 415.4 457.5 604.9 729.4 735.1 1056.7 116.8 287.2 210.6 744.7 269.9 1320.9 36.4 354.2 72.7 1324.7 63.2 1734.4l-5.7 314-53.6 45.9-53.6 45.9H5000.8 2169.5L2115.9 4974.8zM1114.7 4352.6c-132.1-40.2-248.9-139.8-317.8-269.9-32.5-61.3-36.4-126.3-42.1-737-3.8-436.5 1.9-723.6 15.3-823.2 74.7-516.9 421.2-890.2 991.6-1062.5 118.7-36.4 147.4-38.3 197.2-19.1 68.9 28.7 93.8 70.8 93.8 158.9 0 90-40.2 120.6-256.5 195.3-394.4 134-618.3 363.7-691.1 712.1-21.1 97.6-28.7 287.2-28.7 777.2v649l55.5 55.5c55.5 55.5 59.3 55.5 279.5 55.5 210.6 0 224 1.9 268 47.9 78.5 76.6 63.2 201-30.6 248.9C1591.4 4371.8 1204.7 4379.4 1114.7 4352.6zM8360.6 4348.8c-99.6-57.4-118.7-178-38.3-256.5 44-45.9 57.4-47.9 266.1-47.9 204.8 0 224-3.8 273.8-45.9l53.6-45.9 5.7-650.9c3.8-515 0-677.7-23-784.9-74.6-356.1-292.9-585.8-693-721.7-99.6-36.4-199.1-78.5-220.1-97.6-49.8-44-49.8-166.5 1.9-218.2 63.2-63.2 118.7-63.2 308.2 0 534.1 178 859.6 536 934.2 1028 11.5 78.5 21.1 407.8 21.1 777.2 0 721.7-7.7 783-128.3 915.1-122.5 135.9-191.4 158.9-474.8 164.6C8485 4368 8385.4 4362.2 8360.6 4348.8z" fill="#ffffff" class="color000 svgShape"></path><path d="M4922.3 3690.3c-38.3-21.1-82.3-99.6-181.9-323.5L4608.4 3070l-306.3-1.9c-268 0-314-3.8-367.6-36.4-70.8-44-97.6-130.2-59.3-199.1 13.4-26.8 139.7-139.8 279.5-250.8 137.8-112.9 252.7-210.6 252.7-216.3 0-7.7-51.7-145.5-114.9-306.3-84.2-210.6-112.9-304.4-103.4-340.8 15.3-61.3 93.8-124.4 157-124.4 26.8 0 185.7 72.7 356.1 160.8l310.1 162.7 294.8-160.8c162.7-90 319.7-162.7 346.5-162.7 63.2 0 143.6 61.3 158.9 122.5 7.7 30.6-24.9 149.3-93.8 348.4-86.2 245-101.5 306.3-82.3 325.4 13.4 13.4 124.4 107.2 245 208.7 248.9 210.6 287.2 262.3 248.9 354.2-38.3 93.8-78.5 105.3-419.2 114.9l-315.9 9.6-134 292.9C5102.3 3717.1 5054.4 3761.1 4922.3 3690.3zM5088.9 2960.9c40.2-90 90-176.1 111-191.4 24.9-17.2 90-26.8 180-26.8 78.5 0 137.8-7.7 134-17.2-1.9-9.6-59.3-61.3-124.4-114.9-145.5-122.5-157-160.8-91.9-333.1 26.8-70.8 47.9-137.8 47.9-149.3s-63.2 15.3-141.7 57.4c-76.6 44-162.7 78.5-189.5 78.5-26.8 0-114.9-34.5-193.4-78.5-80.4-42.1-145.5-70.8-145.5-61.3s21.1 70.8 47.9 135.9c82.3 202.9 70.8 235.5-135.9 390.5-45.9 34.5-84.2 68.9-84.2 78.5 0 7.7 63.2 13.4 141.7 13.4 168.5 0 179.9 9.6 281.4 239.3 34.5 78.5 68.9 143.6 76.6 143.6C5008.5 3125.5 5048.7 3050.9 5088.9 2960.9zM9174.2 1243.7c-74.7-38.3-95.7-101.5-95.7-294.8v-178H8887c-180 0-197.2-3.8-239.3-47.9-47.9-45.9-61.3-124.4-36.4-191.4 23-59.3 113-86.1 294.8-86.1h172.3V273.1c0-201 28.7-279.5 111-300.6 72.7-19.1 120.6-7.6 172.3 38.3 38.3 36.4 42.1 57.4 42.1 237.4v197.2h193.3c187.6 0 193.4 1.9 248.9 55.5 59.4 59.3 68.9 112.9 32.5 179.9-40.2 78.5-74.6 88.1-277.6 90h-197.2v189.5c0 222.1-5.7 243.1-78.5 279.5C9260.3 1274.4 9235.4 1274.4 9174.2 1243.7zM481-586.4c-47.9-49.8-55.5-70.8-55.5-162.7v-107.2H318.3c-91.9 0-112.9-7.7-162.7-55.5-70.8-72.8-74.7-157-7.7-222.1 38.3-40.2 65.1-47.9 158.9-47.9h114.9l7.7-126.3c5.7-105.3 15.3-134 51.7-162.7 63.2-51.7 164.6-46 222.1 11.5 40.2 38.3 47.9 65.1 47.9 162.7v114.9h114.9c141.7 0 210.6 51.7 210.6 160.8 0 99.5-86.1 164.6-222.1 164.6H751v113c0 103.4-5.7 118.7-59.3 162.7C615-515.6 550-517.5 481-586.4zM2115.9-1396.2c-21.1-24.9-44-59.3-49.8-78.5-7.7-17.2-32.5-40.2-59.3-51.7-61.3-23-107.2-91.9-107.2-158.9 0-57.4 74.7-147.4 122.5-147.4 17.2 0 34.5-21.1 42.1-47.9 15.3-65.1 95.7-124.4 164.6-124.4 59.3 0 149.3 72.7 149.3 122.5 0 17.2 28.7 42.1 65.1 57.4 72.8 30.6 107.2 80.4 107.2 151.2 0 61.3-63.2 139.7-124.4 155.1-30.6 7.6-47.9 24.9-47.9 47.9 0 21.1-23 55.5-49.8 76.6C2259.5-1340.7 2165.7-1342.6 2115.9-1396.2zM8379.7-2175.3c-74.7-30.6-103.4-84.2-109.1-202.9l-5.7-114.8-114.9-5.7c-143.6-7.7-201-53.6-201-157 0-105.3 67-158.9 210.6-168.5l114.9-7.7v-109.1c0-90 7.7-116.8 44-149.3 59.4-55.5 114.9-68.9 176.1-40.2 67 30.6 105.3 107.2 105.3 216.3v86.2h76.6c162.7 0 268 90 239.3 204.8-21.1 88-76.6 120.6-201 120.6h-114.9v95.7c0 124.4-40.2 201-116.8 227.8-34.5 11.5-61.3 21-63.2 19.2C8418-2160 8400.8-2167.7 8379.7-2175.3zM3071.2-3195.7c-28.7-32.6-82.3-216.3-204.8-704.5-91.9-363.7-166.6-691.1-166.6-727.4 0-47.9 13.4-78.5 51.7-109.1l49.8-44h2191.9 2191.9l46 47.9c30.6 28.7 47.9 68.9 47.9 105.3 0 30.6-74.7 358-164.6 723.6-118.7 472.9-178.1 675.8-204.8 708.3l-38.3 42.1H4991.3 3111.4L3071.2-3195.7zM6781.2-3919.3c59.3-237.4 114.9-453.7 120.6-484.3l13.4-51.7h-1924c-1826.3 0-1925.8 1.9-1916.3 34.5 5.8 17.2 57.4 225.9 116.8 463.3 59.4 237.4 111 442.2 114.9 455.6 7.7 19.2 354.2 23 1688.5 19.2l1678.9-5.7L6781.2-3919.3z" fill="#ffffff" class="color000 svgShape"></path><path d="M4072.4-3852.3c-51.7-51.7-63.2-151.3-23-202.9c55.5-72.8,86.1-74.7,959.1-74.7h851.9l51.7,45.9c70.8,59.3,72.8,160.8,7.7,231.6l-44,47.9H4997h-878.7L4072.4-3852.3z" fill="#ffffff" class="color000 svgShape"></path></g></svg></g></svg>