<svg id="SvgjsSvg1006" width="288" height="288" xmlns="http://www.w3.org/2000/svg" version="1.1" xmlns:xlink="http://www.w3.org/1999/xlink" xmlns:svgjs="http://svgjs.com/svgjs"><defs id="SvgjsDefs1007"></defs><g id="SvgjsG1008" transform="matrix(1,0,0,1,0,0)"><svg xmlns="http://www.w3.org/2000/svg" enable-background="new 0 0 64 64" viewBox="0 0 64 64" width="288" height="288"><path d="M32,2C15.432,2,2,15.432,2,32s13.432,30,30,30s30-13.432,30-30S48.568,2,32,2z M32,59.5C16.836,59.5,4.5,47.164,4.5,32		S16.836,4.5,32,4.5c15.164,0,27.5,12.336,27.5,27.5S47.164,59.5,32,59.5z" fill="#ffffff" class="color000 svgShape"></path><circle cx="20.5" cy="24.592" r="5" fill="#ffffff" class="color000 svgShape"></circle><circle cx="43.5" cy="24.592" r="5" fill="#ffffff" class="color000 svgShape"></circle><path d="m32 36.572c-6.354 0-11.314 3.604-13.771 7.65-.658 1.082.217 2.254 1.188 1.578 8.109-5.656 17.107-5.623 25.168 0 .971.676 1.846-.496 1.188-1.578-2.459-4.046-7.419-7.65-13.773-7.65" fill="#ffffff" class="color000 svgShape"></path></svg></g></svg>